<svg width="56" height="56" viewBox="0 0 56 56" fill="none" xmlns="http://www.w3.org/2000/svg">
<path d="M28.2567 5.23835L33.3375 11.5385C33.4185 11.6388 33.4331 11.7773 33.375 11.8924L28.2942 21.9516C28.1728 22.1918 27.8298 22.1918 27.7084 21.9516L22.6276 11.8924C22.5695 11.7773 22.5841 11.6388 22.6651 11.5385L27.7459 5.23835C27.8772 5.0755 28.1254 5.0755 28.2567 5.23835Z" fill="#180600"/>
<path d="M47.8428 16.8417L44.9271 24.3918C44.8807 24.5121 44.7681 24.594 44.6394 24.6012L33.3874 25.2307C33.1187 25.2458 32.9472 24.9487 33.0946 24.7234L39.2657 15.2937C39.3363 15.1859 39.4635 15.1293 39.5909 15.1492L47.5874 16.3993C47.7941 16.4316 47.9182 16.6465 47.8428 16.8417Z" fill="#180600"/>
<path d="M47.5869 39.6031L39.5905 40.8531C39.4631 40.8731 39.3359 40.8165 39.2653 40.7086L33.0941 31.2789C32.9467 31.0537 33.1183 30.7566 33.387 30.7716L44.639 31.4011C44.7677 31.4083 44.8803 31.4903 44.9267 31.6105L47.8424 39.1607C47.9177 39.3559 47.7937 39.5708 47.5869 39.6031Z" fill="#180600"/>
<path d="M28.2567 50.7612L33.3375 44.4611C33.4185 44.3607 33.4331 44.2223 33.375 44.1072L28.2942 34.048C28.1728 33.8077 27.8298 33.8077 27.7084 34.048L22.6276 44.1072C22.5695 44.2223 22.5841 44.3607 22.6651 44.4611L27.7459 50.7612C27.8772 50.924 28.1254 50.924 28.2567 50.7612Z" fill="#180600"/>
<path d="M8.41478 39.6031L16.4112 40.8531C16.5386 40.8731 16.6659 40.8165 16.7365 40.7086L22.9076 31.2789C23.055 31.0537 22.8835 30.7566 22.6147 30.7716L11.3628 31.4011C11.234 31.4083 11.1215 31.4903 11.075 31.6105L8.15937 39.1607C8.084 39.3559 8.20808 39.5708 8.41478 39.6031Z" fill="#180600"/>
<path d="M8.15894 16.8417L11.0746 24.3918C11.121 24.5121 11.2336 24.594 11.3624 24.6012L22.6143 25.2307C22.883 25.2458 23.0546 24.9487 22.9072 24.7234L16.736 15.2937C16.6654 15.1859 16.5382 15.1293 16.4108 15.1492L8.41436 16.3993C8.20765 16.4316 8.08357 16.6465 8.15894 16.8417Z" fill="#180600"/>
</svg>
