<svg width="148" height="56" viewBox="0 0 148 56" fill="none" xmlns="http://www.w3.org/2000/svg">
<path d="M129.601 36.32C128.001 36.32 126.571 35.9467 125.313 35.2C124.075 34.4534 123.105 33.4294 122.401 32.128C121.697 30.8054 121.345 29.3227 121.345 27.68C121.345 26.0374 121.697 24.5654 122.401 23.264C123.105 21.9627 124.075 20.9387 125.313 20.192C126.571 19.4454 128.001 19.072 129.601 19.072C131.201 19.072 132.619 19.4454 133.857 20.192C135.094 20.9387 136.065 21.9627 136.769 23.264C137.494 24.5654 137.857 26.0374 137.857 27.68C137.857 29.3227 137.494 30.8054 136.769 32.128C136.065 33.4294 135.094 34.4534 133.857 35.2C132.619 35.9467 131.201 36.32 129.601 36.32ZM129.601 34.496C130.539 34.496 131.371 34.208 132.097 33.632C132.822 33.0347 133.387 32.224 133.793 31.2C134.219 30.176 134.433 29.0027 134.433 27.68C134.433 26.3574 134.219 25.184 133.793 24.16C133.387 23.136 132.822 22.336 132.097 21.76C131.371 21.184 130.539 20.896 129.601 20.896C128.662 20.896 127.83 21.184 127.105 21.76C126.379 22.336 125.814 23.136 125.409 24.16C125.003 25.184 124.801 26.3574 124.801 27.68C124.801 29.0027 125.003 30.176 125.409 31.2C125.814 32.224 126.379 33.0347 127.105 33.632C127.83 34.208 128.662 34.496 129.601 34.496Z" fill="#180600"/>
<path d="M111.587 36V35.744L112.707 34.24V21.92L111.587 20.288V20.032L116.003 19.232V22.784C116.429 21.6534 117.037 20.7574 117.827 20.096C118.616 19.4134 119.544 19.072 120.611 19.072C121.08 19.072 121.453 19.1147 121.731 19.2L121.507 22.432C120.419 22.112 119.491 22.112 118.723 22.432C117.976 22.752 117.379 23.2534 116.931 23.936C116.483 24.5974 116.173 25.28 116.003 25.984V34.208L117.507 35.744V36H111.587Z" fill="#180600"/>
<path d="M109.991 34.2081L111.111 35.7441V36.0001H105.575V35.7441L106.695 34.2081V21.9201L105.575 20.2881V20.0321L109.991 19.2321V34.2081ZM108.263 16.9601C107.666 16.9601 107.164 16.7574 106.759 16.3521C106.354 15.9468 106.151 15.4454 106.151 14.8481C106.151 14.2508 106.354 13.7494 106.759 13.3441C107.164 12.9388 107.666 12.7361 108.263 12.7361C108.882 12.7361 109.394 12.9388 109.799 13.3441C110.226 13.7494 110.439 14.2508 110.439 14.8481C110.439 15.4454 110.226 15.9468 109.799 16.3521C109.394 16.7574 108.882 16.9601 108.263 16.9601Z" fill="#180600"/>
<path d="M79.3141 36V35.744L80.4021 34.208V21.92L79.2821 20.288V20.032L83.6661 19.232V22.56C84.1354 21.5574 84.8074 20.7254 85.6821 20.064C86.5568 19.4027 87.5595 19.072 88.6901 19.072C89.9488 19.072 91.0048 19.392 91.8581 20.032C92.7114 20.672 93.2874 21.5787 93.5861 22.752C94.1408 21.5574 94.8875 20.6507 95.8261 20.032C96.7648 19.392 97.7674 19.072 98.8341 19.072C100.434 19.072 101.714 19.584 102.674 20.608C103.655 21.6107 104.146 22.9654 104.146 24.672V34.208L105.202 35.744V36H99.8261V35.744L100.85 34.208V25.152C100.85 23.808 100.551 22.8694 99.9541 22.336C99.3781 21.8027 98.6848 21.536 97.8741 21.536C96.8928 21.536 96.0288 21.9094 95.2821 22.656C94.5354 23.4027 94.0768 24.4267 93.9061 25.728V34.208L94.9301 35.744V36H89.5861V35.744L90.6101 34.208V25.152C90.6101 23.808 90.3221 22.8694 89.7461 22.336C89.1701 21.8027 88.4768 21.536 87.6661 21.536C86.6848 21.536 85.8208 21.92 85.0741 22.688C84.3275 23.456 83.8581 24.4694 83.6661 25.728V34.208L84.6901 35.744V36H79.3141Z" fill="#180600"/>
<path d="M69.3551 36.32C67.7764 36.32 66.4964 35.904 65.5151 35.072C64.5551 34.24 64.0751 33.1627 64.0751 31.84C64.0751 30.4534 64.5764 29.3334 65.5791 28.48C66.6031 27.6267 68.0431 27.0187 69.8991 26.656L74.6351 25.728V24.384C74.6351 23.2107 74.3151 22.3147 73.6751 21.696C73.0564 21.0774 72.2564 20.768 71.2751 20.768C70.2298 20.768 69.3551 21.12 68.6511 21.824C67.9684 22.5067 67.6271 23.52 67.6271 24.864L64.3951 24.128C64.5444 23.1894 64.9071 22.336 65.4831 21.568C66.0804 20.8 66.8698 20.192 67.8511 19.744C68.8324 19.296 69.9844 19.072 71.3071 19.072C73.3337 19.072 74.9444 19.5947 76.1391 20.64C77.3338 21.6854 77.9311 23.168 77.9311 25.088V34.112L79.0511 35.744V36H74.6351V33.152C74.1231 34.1334 73.4084 34.912 72.4911 35.488C71.5951 36.0427 70.5498 36.32 69.3551 36.32ZM74.6351 30.656V27.296L71.0191 28.032C68.6724 28.608 67.4991 29.7707 67.4991 31.52C67.4991 32.288 67.7551 32.9174 68.2671 33.408C68.8004 33.8987 69.5044 34.144 70.3791 34.144C71.5098 34.144 72.4271 33.8027 73.1311 33.12C73.8564 32.4374 74.3578 31.616 74.6351 30.656Z" fill="#180600"/>
<path d="M28.2567 5.23835L33.3375 11.5385C33.4185 11.6388 33.4331 11.7773 33.375 11.8924L28.2942 21.9516C28.1728 22.1918 27.8298 22.1918 27.7084 21.9516L22.6276 11.8924C22.5695 11.7773 22.5841 11.6388 22.6651 11.5385L27.7459 5.23835C27.8772 5.0755 28.1254 5.0755 28.2567 5.23835Z" fill="#180600"/>
<path d="M47.8428 16.8417L44.9271 24.3918C44.8807 24.5121 44.7681 24.594 44.6394 24.6012L33.3874 25.2307C33.1187 25.2458 32.9472 24.9487 33.0946 24.7234L39.2657 15.2937C39.3363 15.1859 39.4635 15.1293 39.5909 15.1492L47.5874 16.3993C47.7941 16.4316 47.9182 16.6465 47.8428 16.8417Z" fill="#180600"/>
<path d="M47.5869 39.6031L39.5905 40.8531C39.4631 40.8731 39.3359 40.8165 39.2653 40.7086L33.0941 31.2789C32.9467 31.0537 33.1183 30.7566 33.387 30.7716L44.639 31.4011C44.7677 31.4083 44.8803 31.4903 44.9267 31.6105L47.8424 39.1607C47.9177 39.3559 47.7937 39.5708 47.5869 39.6031Z" fill="#180600"/>
<path d="M28.2567 50.7612L33.3375 44.4611C33.4185 44.3607 33.4331 44.2223 33.375 44.1072L28.2942 34.048C28.1728 33.8077 27.8298 33.8077 27.7084 34.048L22.6276 44.1072C22.5695 44.2223 22.5841 44.3607 22.6651 44.4611L27.7459 50.7612C27.8772 50.924 28.1254 50.924 28.2567 50.7612Z" fill="#180600"/>
<path d="M8.41478 39.6031L16.4112 40.8531C16.5386 40.8731 16.6659 40.8165 16.7365 40.7086L22.9076 31.2789C23.055 31.0537 22.8835 30.7566 22.6147 30.7716L11.3628 31.4011C11.234 31.4083 11.1215 31.4903 11.075 31.6105L8.15937 39.1607C8.084 39.3559 8.20808 39.5708 8.41478 39.6031Z" fill="#180600"/>
<path d="M8.15894 16.8417L11.0746 24.3918C11.121 24.5121 11.2336 24.594 11.3624 24.6012L22.6143 25.2307C22.883 25.2458 23.0546 24.9487 22.9072 24.7234L16.736 15.2937C16.6654 15.1859 16.5382 15.1293 16.4108 15.1492L8.41436 16.3993C8.20765 16.4316 8.08357 16.6465 8.15894 16.8417Z" fill="#180600"/>
</svg>
